<svg width="18" height="19" viewBox="0 0 18 19" fill="none" xmlns="http://www.w3.org/2000/svg">
<path d="M9.2 0.174999C10.95 0.174999 12.5333 0.599999 13.95 1.45C15.3833 2.3 16.4833 3.45833 17.25 4.925L14.525 5.925C13.975 4.975 13.2333 4.23333 12.3 3.7C11.3667 3.15 10.3333 2.875 9.2 2.875C7.43333 2.875 5.96667 3.48333 4.8 4.7C3.61667 5.93333 3.025 7.45 3.025 9.25C3.025 11.05 3.61667 12.5667 4.8 13.8C5.96667 15.0167 7.43333 15.625 9.2 15.625C10.3333 15.625 11.3667 15.3583 12.3 14.825C13.2333 14.275 13.975 13.525 14.525 12.575L17.25 13.575C16.4833 15.0417 15.3833 16.2 13.95 17.05C12.5333 17.9 10.95 18.325 9.2 18.325C6.61667 18.325 4.45833 17.4583 2.725 15.725C0.991667 13.9917 0.125 11.8333 0.125 9.25C0.125 6.66667 0.991667 4.50833 2.725 2.775C4.45833 1.04167 6.61667 0.174999 9.2 0.174999Z" fill="white"/>
</svg>
