<svg width="614" height="435" viewBox="0 0 614 435" fill="none" xmlns="http://www.w3.org/2000/svg">
<line x1="181.335" y1="169.602" x2="262.167" y2="169.585" stroke="#5452F6" stroke-width="1.66681"/>
<path d="M253.832 162.002L262.584 169.917L253.835 177.42" stroke="#5452F6" stroke-width="1.66681" stroke-linecap="round" stroke-linejoin="round"/>
<circle cx="177.585" cy="170.02" r="4.58372" stroke="#5452F6" stroke-width="1.66681"/>
<path d="M428.335 171.601L475.164 171.591C493.575 171.587 508.497 156.659 508.493 138.248L508.485 95.6684" stroke="#5452F6" stroke-width="1.66681" stroke-linecap="round" stroke-linejoin="round"/>
<path d="M507.849 94.7017L501.811 101.36C501.326 101.896 501.706 102.754 502.429 102.754L514.175 102.751C514.887 102.751 515.271 101.916 514.807 101.375L509.099 94.719C508.773 94.3382 508.186 94.33 507.849 94.7017Z" fill="#5452F6"/>
<circle cx="424.585" cy="172.018" r="4.58372" transform="rotate(-90.0117 424.585 172.018)" fill="#5452F6"/>
<line x1="337.335" y1="38.6056" x2="436.167" y2="38.5854" stroke="#5452F6" stroke-width="1.66681" stroke-dasharray="4.17 6.67"/>
<path d="M427.832 30.0017L436.584 37.9173L427.835 45.4197" stroke="#5452F6" stroke-width="1.66681" stroke-linecap="round" stroke-linejoin="round"/>
<circle cx="333.585" cy="39.0232" r="4.58372" stroke="#5452F6" stroke-width="1.66681"/>
<path d="M236.085 341.023L236.08 314.091C236.078 304.886 243.539 297.422 252.744 297.42L434.574 297.383C443.779 297.381 451.243 304.842 451.245 314.047L451.251 340.979" stroke="#5452F6" stroke-width="1.66681"/>
<line x1="342.742" y1="297.006" x2="342.733" y2="251.168" stroke="#5452F6" stroke-width="1.66681"/>
<path d="M459.188 332.643L451.475 340.979L444.165 332.646" stroke="#5452F6" stroke-width="1.66681" stroke-linecap="round" stroke-linejoin="round"/>
<path d="M244.023 332.687L236.31 341.023L229 332.69" stroke="#5452F6" stroke-width="1.66681" stroke-linecap="round" stroke-linejoin="round"/>
<circle cx="342.315" cy="246.585" r="4.58372" stroke="#5452F6" stroke-width="1.66681"/>
<g filter="url(#filter0_b_2_324)">
<path fill-rule="evenodd" clip-rule="evenodd" d="M476 0C466.611 0 459 7.61116 459 17V61C459 70.3888 466.611 78 476 78H597C606.389 78 614 70.3888 614 61V17C614 7.61116 606.389 0 597 0H476ZM17 130C7.61116 130 0 137.611 0 147V191C0 200.389 7.61116 208 17 208H138C147.389 208 155 200.389 155 191V147C155 137.611 147.389 130 138 130H17ZM236 357C214.461 357 197 374.461 197 396C197 417.539 214.461 435 236 435C257.539 435 275 417.539 275 396C275 374.461 257.539 357 236 357ZM413 396C413 374.461 430.461 357 452 357C473.539 357 491 374.461 491 396C491 417.539 473.539 435 452 435C430.461 435 413 417.539 413 396ZM197 31C197 21.6112 204.611 14 214 14H297C306.389 14 314 21.6112 314 31V44C314 53.3888 306.389 61 297 61H214C204.611 61 197 53.3888 197 44V31ZM345.971 113.726C343.366 111.123 339.145 111.124 336.542 113.728L284.726 165.565C282.123 168.169 282.124 172.391 284.728 174.994L336.565 226.809C339.169 229.413 343.391 229.412 345.994 226.807L397.809 174.971C400.413 172.366 400.412 168.145 397.807 165.542L345.971 113.726Z" fill="url(#paint0_radial_2_324)"/>
</g>
<path d="M75.0034 115L75.0032 70.8505C75.0031 52.4421 89.9241 37.518 108.333 37.5142L172.919 37.501" stroke="#5452F6" stroke-width="1.66681" stroke-linecap="round" stroke-linejoin="round"/>
<path d="M173.886 38.1357L167.23 44.1763C166.695 44.6622 165.837 44.2824 165.837 43.5593L165.834 31.8137C165.834 31.1017 166.669 30.7174 167.21 31.1807L173.868 36.8857C174.249 37.2121 174.258 37.7986 173.886 38.1357Z" fill="#5452F6"/>
<circle r="4.58372" transform="matrix(1 -0.000204516 -0.000204516 -1 74.5847 114.585)" fill="#5452F6"/>
<path d="M36.9443 164.931V178H39.9128V172.81H45.6259V170.084H39.9128V167.657H46.7087V164.931H36.9443ZM50.7368 178V168.292H47.9363V178H50.7368ZM48.0856 167.115C48.4217 167.433 48.8324 167.601 49.3365 167.601C49.8406 167.601 50.2514 167.433 50.5687 167.115C50.9048 166.798 51.0728 166.387 51.0728 165.883C51.0728 165.379 50.9048 164.968 50.5687 164.651C50.2514 164.334 49.8406 164.166 49.3365 164.166C48.8324 164.166 48.4217 164.334 48.0856 164.651C47.7682 164.968 47.6002 165.379 47.6002 165.883C47.6002 166.387 47.7682 166.798 48.0856 167.115ZM55.1126 168.292H52.3121V178H55.1126V172.772C55.1126 171.634 55.9527 170.775 57.0729 170.775C57.4836 170.775 57.8197 170.868 58.0811 171.036V168.049C56.7555 168.049 55.766 168.46 55.1126 169.3V168.292ZM66.5656 170.7C66.3229 169.038 64.9413 168.049 62.6822 168.049C60.3111 168.049 58.7429 169.02 58.7429 171.167C58.7429 172.604 59.4897 173.463 61.3006 173.967L63.0743 174.49C63.7277 174.677 64.0451 174.919 64.0451 175.237C64.0451 175.685 63.5224 175.946 62.7756 175.946C61.8607 175.946 61.3006 175.629 61.1139 174.975L58.5375 175.33C58.8175 177.179 60.2738 178.243 62.7196 178.243C65.128 178.243 66.7149 177.16 66.7149 175.125C66.7149 173.65 65.9121 172.754 63.9518 172.138L62.2155 171.578C61.7114 171.391 61.45 171.167 61.45 170.924C61.45 170.495 61.8234 170.289 62.5515 170.289C63.3543 170.289 63.8398 170.569 64.0078 171.111L66.5656 170.7ZM67.3025 170.719H68.628V174.901C68.628 175.778 68.9454 176.525 69.5989 177.123C70.2523 177.701 71.0738 178 72.026 178H73.6316V175.386H72.4927C71.8766 175.386 71.4285 174.957 71.4285 174.359V170.719H73.6316V168.292H71.4285V166.406H68.628V168.292H67.3025V170.719ZM88.7222 167.75C88.4795 166.873 87.9381 166.145 87.0606 165.566C86.2018 164.987 85.1749 164.688 83.9987 164.688C82.6731 164.688 81.5903 165.062 80.7501 165.808C79.9286 166.537 79.5179 167.507 79.5179 168.702C79.5179 169.468 79.7606 170.14 80.0407 170.607C80.3207 171.073 80.9742 171.522 81.3662 171.802C81.5716 171.932 81.8703 172.063 82.2624 172.231L83.1772 172.567C83.4013 172.623 83.7373 172.735 84.1667 172.866L84.3534 172.922C85.1002 173.164 85.5483 173.314 85.9777 173.687C86.2018 173.874 86.3138 174.079 86.3138 174.322C86.3138 175.013 85.455 175.517 84.3908 175.517C83.2146 175.517 82.3184 174.938 82.113 174.191L79.1445 174.901C79.4245 175.89 80.022 176.693 80.9742 177.309C81.9263 177.925 83.0652 178.243 84.3908 178.243C85.8284 178.243 87.0046 177.869 87.9194 177.104C88.8342 176.338 89.2823 175.33 89.2823 174.061C89.2076 172.455 88.5728 171.54 87.49 170.961C86.7432 170.513 86.3324 170.383 85.5296 170.14C84.4841 169.823 83.8307 169.617 83.5693 169.524C82.8412 169.225 82.4864 168.87 82.4864 168.478C82.4864 167.862 83.1585 167.414 84.0547 167.414C84.9322 167.414 85.623 167.862 85.791 168.441L88.7222 167.75ZM89.7466 170.719H91.0721V174.901C91.0721 175.778 91.3895 176.525 92.043 177.123C92.6964 177.701 93.5179 178 94.4701 178H96.0757V175.386H94.9368C94.3207 175.386 93.8726 174.957 93.8726 174.359V170.719H96.0757V168.292H93.8726V166.406H91.0721V168.292H89.7466V170.719ZM107.131 174.154C107.206 173.837 107.243 173.501 107.243 173.146C107.243 171.708 106.758 170.495 105.768 169.524C104.779 168.534 103.565 168.049 102.109 168.049C100.634 168.049 99.4207 168.534 98.4312 169.524C97.4417 170.495 96.9563 171.708 96.9563 173.146C96.9563 174.602 97.4603 175.816 98.4685 176.786C99.4767 177.757 100.746 178.243 102.259 178.243C104.331 178.243 106.03 177.235 106.907 175.61L104.2 174.994C103.715 175.573 103.08 175.853 102.277 175.853C101.138 175.853 100.224 175.181 99.9061 174.154H107.131ZM99.9248 172.082C100.242 171.092 101.12 170.439 102.109 170.439C103.155 170.439 104.032 171.092 104.387 172.082H99.9248ZM111.177 182.201V177.347C111.98 177.944 112.858 178.243 113.847 178.243C115.154 178.243 116.255 177.757 117.133 176.786C118.01 175.797 118.459 174.583 118.459 173.146C118.459 171.69 118.01 170.476 117.133 169.505C116.255 168.534 115.154 168.049 113.847 168.049C112.839 168.049 111.943 168.348 111.177 168.945V168.292H108.377V182.201H111.177ZM113.38 170.812C114.575 170.812 115.527 171.82 115.527 173.164C115.527 173.818 115.322 174.359 114.893 174.807C114.482 175.256 113.978 175.48 113.38 175.48C112.167 175.48 111.215 174.453 111.215 173.164C111.215 171.82 112.167 170.812 113.38 170.812Z" fill="white"/>
<path d="M222.112 32.785L220.955 33.123C220.877 32.7763 220.652 32.486 220.279 32.252C219.915 32.0093 219.486 31.888 218.992 31.888C218.446 31.888 217.996 32.0223 217.64 32.291C217.285 32.551 217.107 32.8803 217.107 33.279C217.107 33.7123 217.35 34.0503 217.835 34.293C218.217 34.475 218.802 34.6657 219.59 34.865C220.232 35.0297 220.73 35.1987 221.085 35.372C221.917 35.762 222.355 36.4423 222.398 37.413C222.398 38.2277 222.086 38.8863 221.462 39.389C220.856 39.8917 220.067 40.143 219.096 40.143C218.221 40.143 217.476 39.9393 216.86 39.532C216.245 39.1333 215.855 38.6133 215.69 37.972L216.86 37.621C216.93 38.0197 217.172 38.3533 217.588 38.622C218.013 38.882 218.516 39.012 219.096 39.012C219.703 39.012 220.21 38.8733 220.617 38.596C221.025 38.31 221.228 37.946 221.228 37.504C221.228 37.0533 221.012 36.7153 220.578 36.49C220.197 36.2907 219.759 36.1303 219.265 36.009L218.719 35.866L218.212 35.71L217.679 35.528C217.653 35.5193 217.614 35.5063 217.562 35.489C217.519 35.463 217.463 35.437 217.393 35.411C217.324 35.3763 217.263 35.346 217.211 35.32C216.995 35.216 216.739 35.0297 216.444 34.761C216.15 34.4663 215.976 33.9983 215.924 33.357C215.924 32.5857 216.21 31.9617 216.782 31.485C217.363 30.9997 218.095 30.757 218.979 30.757C219.777 30.757 220.457 30.9477 221.02 31.329C221.592 31.7017 221.956 32.187 222.112 32.785ZM230.501 36.997H224.69C224.768 37.6037 225.037 38.1107 225.496 38.518C225.947 38.9167 226.502 39.116 227.16 39.116C228.018 39.116 228.686 38.791 229.162 38.141L230.228 38.479C229.916 38.999 229.487 39.4063 228.941 39.701C228.404 39.9957 227.81 40.143 227.16 40.143C226.138 40.143 225.28 39.8093 224.586 39.142C223.902 38.466 223.559 37.6253 223.559 36.62C223.559 35.6147 223.893 34.7783 224.56 34.111C225.228 33.435 226.055 33.097 227.043 33.097C228.04 33.097 228.868 33.435 229.526 34.111C230.194 34.7783 230.527 35.6147 230.527 36.62C230.527 36.646 230.519 36.7717 230.501 36.997ZM224.703 36.113H229.396C229.292 35.5323 229.019 35.0513 228.577 34.67C228.144 34.2973 227.624 34.111 227.017 34.111C226.428 34.111 225.921 34.2973 225.496 34.67C225.072 35.0427 224.807 35.5237 224.703 36.113ZM238.317 35.138L237.225 35.463C237.026 35.073 236.735 34.7653 236.354 34.54C235.981 34.306 235.561 34.189 235.093 34.189C234.408 34.189 233.841 34.423 233.39 34.891C232.931 35.3503 232.701 35.9267 232.701 36.62C232.701 37.3047 232.931 37.8853 233.39 38.362C233.849 38.8213 234.417 39.051 235.093 39.051C235.561 39.051 235.981 38.9383 236.354 38.713C236.735 38.479 237.026 38.167 237.225 37.777L238.317 38.102C238.04 38.7347 237.611 39.233 237.03 39.597C236.458 39.961 235.812 40.143 235.093 40.143C234.096 40.143 233.256 39.8093 232.571 39.142C231.904 38.4573 231.57 37.6167 231.57 36.62C231.57 35.6147 231.904 34.7783 232.571 34.111C233.247 33.435 234.088 33.097 235.093 33.097C235.812 33.097 236.458 33.279 237.03 33.643C237.611 34.007 238.04 34.5053 238.317 35.138ZM240.353 39.142C239.686 38.4573 239.352 37.6167 239.352 36.62C239.352 35.6147 239.686 34.7783 240.353 34.111C241.029 33.435 241.87 33.097 242.875 33.097C243.881 33.097 244.721 33.435 245.397 34.111C246.073 34.7783 246.411 35.6147 246.411 36.62C246.411 37.6253 246.073 38.466 245.397 39.142C244.713 39.8093 243.872 40.143 242.875 40.143C241.879 40.143 241.038 39.8093 240.353 39.142ZM242.875 39.051C243.56 39.051 244.132 38.8213 244.591 38.362C245.051 37.8853 245.28 37.3047 245.28 36.62C245.28 35.9267 245.051 35.3503 244.591 34.891C244.132 34.423 243.56 34.189 242.875 34.189C242.191 34.189 241.623 34.423 241.172 34.891C240.713 35.3503 240.483 35.9267 240.483 36.62C240.483 37.3047 240.713 37.8853 241.172 38.362C241.632 38.8213 242.199 39.051 242.875 39.051ZM247.904 40V33.24H248.996V34.371C249.534 33.5217 250.335 33.097 251.401 33.097C252.181 33.097 252.827 33.3527 253.338 33.864C253.858 34.3667 254.118 35.008 254.118 35.788V40H253.026V36.074C253.026 35.528 252.84 35.0687 252.467 34.696C252.103 34.3233 251.648 34.137 251.102 34.137C250.513 34.137 250.015 34.3277 249.607 34.709C249.2 35.0903 248.996 35.554 248.996 36.1V40H247.904ZM258.918 33.097C259.932 33.097 260.755 33.4653 261.388 34.202V30.25H262.48V40H261.388V39.038C260.755 39.7747 259.932 40.143 258.918 40.143C257.973 40.143 257.18 39.8093 256.539 39.142C255.906 38.4747 255.59 37.634 255.59 36.62C255.59 35.606 255.906 34.7697 256.539 34.111C257.171 33.435 257.964 33.097 258.918 33.097ZM259.035 34.189C258.385 34.189 257.834 34.423 257.384 34.891C256.942 35.3503 256.721 35.9267 256.721 36.62C256.721 37.3133 256.942 37.894 257.384 38.362C257.843 38.8213 258.393 39.051 259.035 39.051C259.693 39.051 260.244 38.8213 260.686 38.362C261.136 37.9027 261.362 37.322 261.362 36.62C261.362 35.918 261.136 35.3417 260.686 34.891C260.244 34.423 259.693 34.189 259.035 34.189ZM274.049 32.785L272.892 33.123C272.814 32.7763 272.589 32.486 272.216 32.252C271.852 32.0093 271.423 31.888 270.929 31.888C270.383 31.888 269.932 32.0223 269.577 32.291C269.222 32.551 269.044 32.8803 269.044 33.279C269.044 33.7123 269.287 34.0503 269.772 34.293C270.153 34.475 270.738 34.6657 271.527 34.865C272.168 35.0297 272.667 35.1987 273.022 35.372C273.854 35.762 274.292 36.4423 274.335 37.413C274.335 38.2277 274.023 38.8863 273.399 39.389C272.792 39.8917 272.004 40.143 271.033 40.143C270.158 40.143 269.412 39.9393 268.797 39.532C268.182 39.1333 267.792 38.6133 267.627 37.972L268.797 37.621C268.866 38.0197 269.109 38.3533 269.525 38.622C269.95 38.882 270.452 39.012 271.033 39.012C271.64 39.012 272.147 38.8733 272.554 38.596C272.961 38.31 273.165 37.946 273.165 37.504C273.165 37.0533 272.948 36.7153 272.515 36.49C272.134 36.2907 271.696 36.1303 271.202 36.009L270.656 35.866L270.149 35.71L269.616 35.528C269.59 35.5193 269.551 35.5063 269.499 35.489C269.456 35.463 269.399 35.437 269.33 35.411C269.261 35.3763 269.2 35.346 269.148 35.32C268.931 35.216 268.676 35.0297 268.381 34.761C268.086 34.4663 267.913 33.9983 267.861 33.357C267.861 32.5857 268.147 31.9617 268.719 31.485C269.3 30.9997 270.032 30.757 270.916 30.757C271.713 30.757 272.394 30.9477 272.957 31.329C273.529 31.7017 273.893 32.187 274.049 32.785ZM275.119 34.202V33.24H276.211V31.888H277.303V33.24H279.188V34.202H277.303V37.881C277.303 38.1843 277.394 38.44 277.576 38.648C277.766 38.8473 278 38.947 278.278 38.947H279.188V40H278.2C277.636 40 277.164 39.8093 276.783 39.428C276.401 39.0467 276.211 38.5743 276.211 38.011V34.202H275.119ZM287.097 36.997H281.286C281.364 37.6037 281.633 38.1107 282.092 38.518C282.543 38.9167 283.097 39.116 283.756 39.116C284.614 39.116 285.281 38.791 285.758 38.141L286.824 38.479C286.512 38.999 286.083 39.4063 285.537 39.701C285 39.9957 284.406 40.143 283.756 40.143C282.733 40.143 281.875 39.8093 281.182 39.142C280.497 38.466 280.155 37.6253 280.155 36.62C280.155 35.6147 280.489 34.7783 281.156 34.111C281.823 33.435 282.651 33.097 283.639 33.097C284.636 33.097 285.463 33.435 286.122 34.111C286.789 34.7783 287.123 35.6147 287.123 36.62C287.123 36.646 287.114 36.7717 287.097 36.997ZM281.299 36.113H285.992C285.888 35.5323 285.615 35.0513 285.173 34.67C284.74 34.2973 284.22 34.111 283.613 34.111C283.024 34.111 282.517 34.2973 282.092 34.67C281.667 35.0427 281.403 35.5237 281.299 36.113ZM289.609 42.925H288.517V33.24H289.609V34.202C290.241 33.4653 291.06 33.097 292.066 33.097C293.019 33.097 293.812 33.435 294.445 34.111C295.086 34.7783 295.407 35.6147 295.407 36.62C295.407 37.6167 295.086 38.4573 294.445 39.142C293.803 39.8093 293.01 40.143 292.066 40.143C291.06 40.143 290.241 39.7747 289.609 39.038V42.925ZM291.949 34.189C291.299 34.189 290.748 34.423 290.298 34.891C289.856 35.3503 289.635 35.9267 289.635 36.62C289.635 37.3133 289.856 37.894 290.298 38.362C290.757 38.8213 291.307 39.051 291.949 39.051C292.607 39.051 293.158 38.8213 293.6 38.362C294.05 37.9027 294.276 37.322 294.276 36.62C294.276 35.918 294.05 35.3417 293.6 34.891C293.158 34.423 292.607 34.189 291.949 34.189Z" fill="white"/>
<path d="M321.104 165.992H317.698V164.9H325.68V165.992H322.274V174H321.104V165.992ZM327.005 170.178V174H325.913V167.24H327.005V168.384C327.516 167.526 328.318 167.097 329.41 167.097H329.592V168.306C329.453 168.254 329.293 168.228 329.111 168.228C328.513 168.228 328.014 168.414 327.616 168.787C327.208 169.168 327.005 169.632 327.005 170.178ZM333.447 167.097C334.461 167.097 335.285 167.465 335.917 168.202V167.24H337.009V174H335.917V173.038C335.285 173.775 334.461 174.143 333.447 174.143C332.503 174.143 331.71 173.809 331.068 173.142C330.436 172.475 330.119 171.634 330.119 170.62C330.119 169.606 330.436 168.77 331.068 168.111C331.701 167.435 332.494 167.097 333.447 167.097ZM333.564 168.189C332.914 168.189 332.364 168.423 331.913 168.891C331.471 169.35 331.25 169.927 331.25 170.62C331.25 171.313 331.471 171.894 331.913 172.362C332.373 172.821 332.923 173.051 333.564 173.051C334.223 173.051 334.773 172.821 335.215 172.362C335.666 171.903 335.891 171.322 335.891 170.62C335.891 169.918 335.666 169.342 335.215 168.891C334.773 168.423 334.223 168.189 333.564 168.189ZM341.826 167.097C342.84 167.097 343.664 167.465 344.296 168.202V164.25H345.388V174H344.296V173.038C343.664 173.775 342.84 174.143 341.826 174.143C340.882 174.143 340.089 173.809 339.447 173.142C338.815 172.475 338.498 171.634 338.498 170.62C338.498 169.606 338.815 168.77 339.447 168.111C340.08 167.435 340.873 167.097 341.826 167.097ZM341.943 168.189C341.293 168.189 340.743 168.423 340.292 168.891C339.85 169.35 339.629 169.927 339.629 170.62C339.629 171.313 339.85 171.894 340.292 172.362C340.752 172.821 341.302 173.051 341.943 173.051C342.602 173.051 343.152 172.821 343.594 172.362C344.045 171.903 344.27 171.322 344.27 170.62C344.27 169.918 344.045 169.342 343.594 168.891C343.152 168.423 342.602 168.189 341.943 168.189ZM348.32 174H347.228V167.24H348.32V174ZM347.228 166.135C347.09 165.988 347.02 165.806 347.02 165.589C347.02 165.372 347.09 165.195 347.228 165.056C347.376 164.909 347.558 164.835 347.774 164.835C347.991 164.835 348.173 164.909 348.32 165.056C348.468 165.195 348.541 165.372 348.541 165.589C348.541 165.806 348.468 165.988 348.32 166.135C348.173 166.274 347.991 166.343 347.774 166.343C347.558 166.343 347.376 166.274 347.228 166.135ZM350.161 174V167.24H351.253V168.371C351.79 167.522 352.592 167.097 353.658 167.097C354.438 167.097 355.083 167.353 355.595 167.864C356.115 168.367 356.375 169.008 356.375 169.788V174H355.283V170.074C355.283 169.528 355.096 169.069 354.724 168.696C354.36 168.323 353.905 168.137 353.359 168.137C352.769 168.137 352.271 168.328 351.864 168.709C351.456 169.09 351.253 169.554 351.253 170.1V174H350.161ZM361.174 174.143C360.229 174.143 359.436 173.809 358.795 173.142C358.162 172.475 357.846 171.634 357.846 170.62C357.846 169.606 358.162 168.77 358.795 168.111C359.428 167.435 360.221 167.097 361.174 167.097C362.188 167.097 363.011 167.465 363.644 168.202V167.24H364.736V173.714C364.736 174.676 364.407 175.473 363.748 176.106C363.081 176.747 362.27 177.068 361.317 177.068C360.658 177.068 360.039 176.903 359.458 176.574C358.895 176.245 358.483 175.829 358.223 175.326L359.315 174.975C359.497 175.27 359.766 175.508 360.121 175.69C360.485 175.881 360.871 175.976 361.278 175.976C361.945 175.976 362.509 175.759 362.968 175.326C363.427 174.893 363.653 174.355 363.644 173.714V173.038C363.011 173.775 362.188 174.143 361.174 174.143ZM361.291 168.189C360.641 168.189 360.091 168.423 359.64 168.891C359.198 169.35 358.977 169.927 358.977 170.62C358.977 171.313 359.198 171.894 359.64 172.362C360.099 172.821 360.65 173.051 361.291 173.051C361.95 173.051 362.5 172.821 362.942 172.362C363.393 171.903 363.618 171.322 363.618 170.62C363.618 169.918 363.393 169.342 362.942 168.891C362.5 168.423 361.95 168.189 361.291 168.189Z" fill="white"/>
<path d="M512.155 34.992H508.749V33.9H516.731V34.992H513.325V43H512.155V34.992ZM518.005 43V33.25H519.097V37.371C519.634 36.5217 520.44 36.097 521.515 36.097C522.295 36.097 522.949 36.3527 523.478 36.864C523.998 37.3667 524.258 38.008 524.258 38.788V43H523.166V39.074C523.166 38.528 522.98 38.0687 522.607 37.696C522.234 37.3233 521.771 37.137 521.216 37.137C520.618 37.137 520.115 37.3277 519.708 37.709C519.301 38.0903 519.097 38.554 519.097 39.1V43H518.005ZM527.171 43H526.079V36.24H527.171V43ZM526.079 35.135C525.941 34.9877 525.871 34.8057 525.871 34.589C525.871 34.3723 525.941 34.1947 526.079 34.056C526.227 33.9087 526.409 33.835 526.625 33.835C526.842 33.835 527.024 33.9087 527.171 34.056C527.319 34.1947 527.392 34.3723 527.392 34.589C527.392 34.8057 527.319 34.9877 527.171 35.135C527.024 35.2737 526.842 35.343 526.625 35.343C526.409 35.343 526.227 35.2737 526.079 35.135ZM530.104 39.178V43H529.012V36.24H530.104V37.384C530.615 36.526 531.417 36.097 532.509 36.097H532.691V37.306C532.552 37.254 532.392 37.228 532.21 37.228C531.612 37.228 531.114 37.4143 530.715 37.787C530.308 38.1683 530.104 38.632 530.104 39.178ZM536.546 36.097C537.56 36.097 538.384 36.4653 539.016 37.202V33.25H540.108V43H539.016V42.038C538.384 42.7747 537.56 43.143 536.546 43.143C535.602 43.143 534.809 42.8093 534.167 42.142C533.535 41.4747 533.218 40.634 533.218 39.62C533.218 38.606 533.535 37.7697 534.167 37.111C534.8 36.435 535.593 36.097 536.546 36.097ZM536.663 37.189C536.013 37.189 535.463 37.423 535.012 37.891C534.57 38.3503 534.349 38.9267 534.349 39.62C534.349 40.3133 534.57 40.894 535.012 41.362C535.472 41.8213 536.022 42.051 536.663 42.051C537.322 42.051 537.872 41.8213 538.314 41.362C538.765 40.9027 538.99 40.322 538.99 39.62C538.99 38.918 538.765 38.3417 538.314 37.891C537.872 37.423 537.322 37.189 536.663 37.189ZM551.678 35.785L550.521 36.123C550.443 35.7763 550.217 35.486 549.845 35.252C549.481 35.0093 549.052 34.888 548.558 34.888C548.012 34.888 547.561 35.0223 547.206 35.291C546.85 35.551 546.673 35.8803 546.673 36.279C546.673 36.7123 546.915 37.0503 547.401 37.293C547.782 37.475 548.367 37.6657 549.156 37.865C549.797 38.0297 550.295 38.1987 550.651 38.372C551.483 38.762 551.92 39.4423 551.964 40.413C551.964 41.2277 551.652 41.8863 551.028 42.389C550.421 42.8917 549.632 43.143 548.662 43.143C547.786 43.143 547.041 42.9393 546.426 42.532C545.81 42.1333 545.42 41.6133 545.256 40.972L546.426 40.621C546.495 41.0197 546.738 41.3533 547.154 41.622C547.578 41.882 548.081 42.012 548.662 42.012C549.268 42.012 549.775 41.8733 550.183 41.596C550.59 41.31 550.794 40.946 550.794 40.504C550.794 40.0533 550.577 39.7153 550.144 39.49C549.762 39.2907 549.325 39.1303 548.831 39.009L548.285 38.866L547.778 38.71L547.245 38.528C547.219 38.5193 547.18 38.5063 547.128 38.489C547.084 38.463 547.028 38.437 546.959 38.411C546.889 38.3763 546.829 38.346 546.777 38.32C546.56 38.216 546.304 38.0297 546.01 37.761C545.715 37.4663 545.542 36.9983 545.49 36.357C545.49 35.5857 545.776 34.9617 546.348 34.485C546.928 33.9997 547.661 33.757 548.545 33.757C549.342 33.757 550.022 33.9477 550.586 34.329C551.158 34.7017 551.522 35.187 551.678 35.785ZM552.748 37.202V36.24H553.84V34.888H554.932V36.24H556.817V37.202H554.932V40.881C554.932 41.1843 555.023 41.44 555.205 41.648C555.395 41.8473 555.629 41.947 555.907 41.947H556.817V43H555.829C555.265 43 554.793 42.8093 554.412 42.428C554.03 42.0467 553.84 41.5743 553.84 41.011V37.202H552.748ZM564.726 39.997H558.915C558.993 40.6037 559.262 41.1107 559.721 41.518C560.172 41.9167 560.726 42.116 561.385 42.116C562.243 42.116 562.91 41.791 563.387 41.141L564.453 41.479C564.141 41.999 563.712 42.4063 563.166 42.701C562.629 42.9957 562.035 43.143 561.385 43.143C560.362 43.143 559.504 42.8093 558.811 42.142C558.126 41.466 557.784 40.6253 557.784 39.62C557.784 38.6147 558.118 37.7783 558.785 37.111C559.452 36.435 560.28 36.097 561.268 36.097C562.265 36.097 563.092 36.435 563.751 37.111C564.418 37.7783 564.752 38.6147 564.752 39.62C564.752 39.646 564.743 39.7717 564.726 39.997ZM558.928 39.113H563.621C563.517 38.5323 563.244 38.0513 562.802 37.67C562.369 37.2973 561.849 37.111 561.242 37.111C560.653 37.111 560.146 37.2973 559.721 37.67C559.296 38.0427 559.032 38.5237 558.928 39.113ZM567.238 45.925H566.146V36.24H567.238V37.202C567.87 36.4653 568.689 36.097 569.695 36.097C570.648 36.097 571.441 36.435 572.074 37.111C572.715 37.7783 573.036 38.6147 573.036 39.62C573.036 40.6167 572.715 41.4573 572.074 42.142C571.432 42.8093 570.639 43.143 569.695 43.143C568.689 43.143 567.87 42.7747 567.238 42.038V45.925ZM569.578 37.189C568.928 37.189 568.377 37.423 567.927 37.891C567.485 38.3503 567.264 38.9267 567.264 39.62C567.264 40.3133 567.485 40.894 567.927 41.362C568.386 41.8213 568.936 42.051 569.578 42.051C570.236 42.051 570.787 41.8213 571.229 41.362C571.679 40.9027 571.905 40.322 571.905 39.62C571.905 38.918 571.679 38.3417 571.229 37.891C570.787 37.423 570.236 37.189 569.578 37.189Z" fill="white"/>
<path d="M220.889 388.7H225.425V389.456H221.699V391.436H224.966V392.192H221.699V394.244H225.47V395H220.889V388.7ZM228.38 390.221C229.082 390.221 229.652 390.476 230.09 390.986V390.32H230.846V395H230.09V394.334C229.652 394.844 229.082 395.099 228.38 395.099C227.726 395.099 227.177 394.868 226.733 394.406C226.295 393.944 226.076 393.362 226.076 392.66C226.076 391.958 226.295 391.379 226.733 390.923C227.171 390.455 227.72 390.221 228.38 390.221ZM228.461 390.977C228.011 390.977 227.63 391.139 227.318 391.463C227.012 391.781 226.859 392.18 226.859 392.66C226.859 393.14 227.012 393.542 227.318 393.866C227.636 394.184 228.017 394.343 228.461 394.343C228.917 394.343 229.298 394.184 229.604 393.866C229.916 393.548 230.072 393.146 230.072 392.66C230.072 392.174 229.916 391.775 229.604 391.463C229.298 391.139 228.917 390.977 228.461 390.977ZM232.875 392.354V395H232.119V390.32H232.875V391.112C233.229 390.518 233.784 390.221 234.54 390.221H234.666V391.058C234.57 391.022 234.459 391.004 234.333 391.004C233.919 391.004 233.574 391.133 233.298 391.391C233.016 391.655 232.875 391.976 232.875 392.354ZM235.494 395V390.32H236.25V391.103C236.622 390.515 237.177 390.221 237.915 390.221C238.455 390.221 238.902 390.398 239.256 390.752C239.616 391.1 239.796 391.544 239.796 392.084V395H239.04V392.282C239.04 391.904 238.911 391.586 238.653 391.328C238.401 391.07 238.086 390.941 237.708 390.941C237.3 390.941 236.955 391.073 236.673 391.337C236.391 391.601 236.25 391.922 236.25 392.3V395H235.494ZM241.814 395H241.058V390.32H241.814V395ZM241.058 389.555C240.962 389.453 240.914 389.327 240.914 389.177C240.914 389.027 240.962 388.904 241.058 388.808C241.16 388.706 241.286 388.655 241.436 388.655C241.586 388.655 241.712 388.706 241.814 388.808C241.916 388.904 241.967 389.027 241.967 389.177C241.967 389.327 241.916 389.453 241.814 389.555C241.712 389.651 241.586 389.699 241.436 389.699C241.286 389.699 241.16 389.651 241.058 389.555ZM243.088 395V390.32H243.844V391.103C244.216 390.515 244.771 390.221 245.509 390.221C246.049 390.221 246.496 390.398 246.85 390.752C247.21 391.1 247.39 391.544 247.39 392.084V395H246.634V392.282C246.634 391.904 246.505 391.586 246.247 391.328C245.995 391.07 245.68 390.941 245.302 390.941C244.894 390.941 244.549 391.073 244.267 391.337C243.985 391.601 243.844 391.922 243.844 392.3V395H243.088ZM250.713 395.099C250.059 395.099 249.51 394.868 249.066 394.406C248.628 393.944 248.409 393.362 248.409 392.66C248.409 391.958 248.628 391.379 249.066 390.923C249.504 390.455 250.053 390.221 250.713 390.221C251.415 390.221 251.985 390.476 252.423 390.986V390.32H253.179V394.802C253.179 395.468 252.951 396.02 252.495 396.458C252.033 396.902 251.472 397.124 250.812 397.124C250.356 397.124 249.927 397.01 249.525 396.782C249.135 396.554 248.85 396.266 248.67 395.918L249.426 395.675C249.552 395.879 249.738 396.044 249.984 396.17C250.236 396.302 250.503 396.368 250.785 396.368C251.247 396.368 251.637 396.218 251.955 395.918C252.273 395.618 252.429 395.246 252.423 394.802V394.334C251.985 394.844 251.415 395.099 250.713 395.099ZM250.794 390.977C250.344 390.977 249.963 391.139 249.651 391.463C249.345 391.781 249.192 392.18 249.192 392.66C249.192 393.14 249.345 393.542 249.651 393.866C249.969 394.184 250.35 394.343 250.794 394.343C251.25 394.343 251.631 394.184 251.937 393.866C252.249 393.548 252.405 393.146 252.405 392.66C252.405 392.174 252.249 391.775 251.937 391.463C251.631 391.139 251.25 390.977 250.794 390.977Z" fill="white"/>
<path d="M442.123 392.005L441.322 392.239C441.268 391.999 441.112 391.798 440.854 391.636C440.602 391.468 440.305 391.384 439.963 391.384C439.585 391.384 439.273 391.477 439.027 391.663C438.781 391.843 438.658 392.071 438.658 392.347C438.658 392.647 438.826 392.881 439.162 393.049C439.426 393.175 439.831 393.307 440.377 393.445C440.821 393.559 441.166 393.676 441.412 393.796C441.988 394.066 442.291 394.537 442.321 395.209C442.321 395.773 442.105 396.229 441.673 396.577C441.253 396.925 440.707 397.099 440.035 397.099C439.429 397.099 438.913 396.958 438.487 396.676C438.061 396.4 437.791 396.04 437.677 395.596L438.487 395.353C438.535 395.629 438.703 395.86 438.991 396.046C439.285 396.226 439.633 396.316 440.035 396.316C440.455 396.316 440.806 396.22 441.088 396.028C441.37 395.83 441.511 395.578 441.511 395.272C441.511 394.96 441.361 394.726 441.061 394.57C440.797 394.432 440.494 394.321 440.152 394.237L439.774 394.138L439.423 394.03L439.054 393.904C439.036 393.898 439.009 393.889 438.973 393.877C438.943 393.859 438.904 393.841 438.856 393.823C438.808 393.799 438.766 393.778 438.73 393.76C438.58 393.688 438.403 393.559 438.199 393.373C437.995 393.169 437.875 392.845 437.839 392.401C437.839 391.867 438.037 391.435 438.433 391.105C438.835 390.769 439.342 390.601 439.954 390.601C440.506 390.601 440.977 390.733 441.367 390.997C441.763 391.255 442.015 391.591 442.123 392.005ZM442.864 392.986V392.32H443.62V391.384H444.376V392.32H445.681V392.986H444.376V395.533C444.376 395.743 444.439 395.92 444.565 396.064C444.697 396.202 444.859 396.271 445.051 396.271H445.681V397H444.997C444.607 397 444.28 396.868 444.016 396.604C443.752 396.34 443.62 396.013 443.62 395.623V392.986H442.864ZM448.655 392.221C449.357 392.221 449.927 392.476 450.365 392.986V392.32H451.121V397H450.365V396.334C449.927 396.844 449.357 397.099 448.655 397.099C448.001 397.099 447.452 396.868 447.008 396.406C446.57 395.944 446.351 395.362 446.351 394.66C446.351 393.958 446.57 393.379 447.008 392.923C447.446 392.455 447.995 392.221 448.655 392.221ZM448.736 392.977C448.286 392.977 447.905 393.139 447.593 393.463C447.287 393.781 447.134 394.18 447.134 394.66C447.134 395.14 447.287 395.542 447.593 395.866C447.911 396.184 448.292 396.343 448.736 396.343C449.192 396.343 449.573 396.184 449.879 395.866C450.191 395.548 450.347 395.146 450.347 394.66C450.347 394.174 450.191 393.775 449.879 393.463C449.573 393.139 449.192 392.977 448.736 392.977ZM452.394 397V390.25H453.15V397H452.394ZM456.237 397H455.292L453.186 394.579L455.112 392.32H456.039L454.122 394.579L456.237 397ZM457.782 397H457.026V392.32H457.782V397ZM457.026 391.555C456.93 391.453 456.882 391.327 456.882 391.177C456.882 391.027 456.93 390.904 457.026 390.808C457.128 390.706 457.254 390.655 457.404 390.655C457.554 390.655 457.68 390.706 457.782 390.808C457.884 390.904 457.935 391.027 457.935 391.177C457.935 391.327 457.884 391.453 457.782 391.555C457.68 391.651 457.554 391.699 457.404 391.699C457.254 391.699 457.128 391.651 457.026 391.555ZM459.056 397V392.32H459.812V393.103C460.184 392.515 460.739 392.221 461.477 392.221C462.017 392.221 462.464 392.398 462.818 392.752C463.178 393.1 463.358 393.544 463.358 394.084V397H462.602V394.282C462.602 393.904 462.473 393.586 462.215 393.328C461.963 393.07 461.648 392.941 461.27 392.941C460.862 392.941 460.517 393.073 460.235 393.337C459.953 393.601 459.812 393.922 459.812 394.3V397H459.056ZM466.681 397.099C466.027 397.099 465.478 396.868 465.034 396.406C464.596 395.944 464.377 395.362 464.377 394.66C464.377 393.958 464.596 393.379 465.034 392.923C465.472 392.455 466.021 392.221 466.681 392.221C467.383 392.221 467.953 392.476 468.391 392.986V392.32H469.147V396.802C469.147 397.468 468.919 398.02 468.463 398.458C468.001 398.902 467.44 399.124 466.78 399.124C466.324 399.124 465.895 399.01 465.493 398.782C465.103 398.554 464.818 398.266 464.638 397.918L465.394 397.675C465.52 397.879 465.706 398.044 465.952 398.17C466.204 398.302 466.471 398.368 466.753 398.368C467.215 398.368 467.605 398.218 467.923 397.918C468.241 397.618 468.397 397.246 468.391 396.802V396.334C467.953 396.844 467.383 397.099 466.681 397.099ZM466.762 392.977C466.312 392.977 465.931 393.139 465.619 393.463C465.313 393.781 465.16 394.18 465.16 394.66C465.16 395.14 465.313 395.542 465.619 395.866C465.937 396.184 466.318 396.343 466.762 396.343C467.218 396.343 467.599 396.184 467.905 395.866C468.217 395.548 468.373 395.146 468.373 394.66C468.373 394.174 468.217 393.775 467.905 393.463C467.599 393.139 467.218 392.977 466.762 392.977Z" fill="white"/>
<defs>
<filter id="filter0_b_2_324" x="-9" y="-9" width="632" height="453" filterUnits="userSpaceOnUse" color-interpolation-filters="sRGB">
<feFlood flood-opacity="0" result="BackgroundImageFix"/>
<feGaussianBlur in="BackgroundImageFix" stdDeviation="4.5"/>
<feComposite in2="SourceAlpha" operator="in" result="effect1_backgroundBlur_2_324"/>
<feBlend mode="normal" in="SourceGraphic" in2="effect1_backgroundBlur_2_324" result="shape"/>
</filter>
<radialGradient id="paint0_radial_2_324" cx="0" cy="0" r="1" gradientUnits="userSpaceOnUse" gradientTransform="translate(327 183.5) rotate(92.3003) scale(236.691 334.088)">
<stop stop-color="#40539D"/>
<stop offset="1" stop-color="#605CFF" stop-opacity="0"/>
</radialGradient>
</defs>
</svg>
