<svg width="191" height="153" viewBox="0 0 251 213" fill="none" xmlns="http://www.w3.org/2000/svg">
<path fill-rule="evenodd" clip-rule="evenodd" d="M101.142 177.964V128.14L100.886 129.022L51.1555 114.628L50.49 114.435V113.742V82.1346L36.6213 67.9028L32.2795 67.8487C31.648 72.9473 27.2728 76.8634 22.0206 76.798C16.382 76.7278 11.868 72.0956 11.9381 66.4516C12.0082 60.8076 16.6359 56.2891 22.2745 56.3593C27.678 56.4265 32.0489 60.6836 32.3421 66.0057L37.0263 66.064L37.4083 66.0687L37.675 66.3424L50.49 79.4929V51.2952C49.4215 50.9483 48.6489 49.9438 48.6489 48.7586C48.6489 47.2862 49.8414 46.0925 51.3125 46.0925C52.7835 46.0925 53.976 47.2862 53.976 48.7586C53.976 49.8689 53.2979 50.8207 52.3337 51.2218V113.049L84.1949 122.271L70.958 106.033L70.7507 105.778V105.45V25.4831C69.6822 25.1362 68.9097 24.1316 68.9097 22.9465C68.9097 21.474 70.1022 20.2804 71.5732 20.2804C73.0442 20.2804 74.2367 21.474 74.2367 22.9465C74.2367 24.0569 73.5586 25.0087 72.5944 25.4097V105.122L87.1221 122.944L86.9643 123.073L101.142 127.176V0H102.985V126.261L116.235 113.583V51.3808C115.219 51.0054 114.494 50.0268 114.494 48.8787C114.494 47.4062 115.686 46.2126 117.157 46.2126C118.628 46.2126 119.821 47.4062 119.821 48.8787C119.821 50.0268 119.096 51.0054 118.079 51.3808V113.977V114.371L117.795 114.643L102.985 128.812V161.346L131.995 129.175V83.4456C130.863 83.138 130.031 82.1025 130.031 80.8725C130.031 79.4 131.224 78.2063 132.695 78.2063C134.166 78.2063 135.358 79.4 135.358 80.8725C135.358 81.9351 134.737 82.8526 133.838 83.2809V129.53V129.884L133.601 130.147L102.985 164.1V177.042H149.563H197.507H197.887L198.157 177.31L230.293 209.258H328.242V211.102H229.913H229.533L229.263 210.834L197.127 178.886H149.563H102.064H101.142V177.964ZM22.378 65.8817L30.4933 65.9827C30.1916 61.6784 26.635 58.2574 22.2516 58.2028C17.6329 58.1453 13.8391 61.847 13.7816 66.4745C13.7241 71.102 17.4248 74.897 22.0435 74.9545C26.2748 75.0071 29.8139 71.9046 30.4218 67.8256L22.3551 67.7252L22.378 65.8817ZM263.241 0.666768V152.011C268.448 152.477 272.53 156.856 272.53 162.19C272.53 167.834 267.958 172.41 262.319 172.41C256.681 172.41 252.109 167.834 252.109 162.19C252.109 156.856 256.191 152.477 261.398 152.011V53.3049L248.148 66.3725V129.915C249.165 130.291 249.89 131.269 249.89 132.417C249.89 133.89 248.697 135.084 247.226 135.084C245.755 135.084 244.563 133.89 244.563 132.417C244.563 131.269 245.288 130.291 246.304 129.915V65.9869V65.6013L246.579 65.3306L261.398 50.7154V19.5568L230.835 50.1492V112.586C231.852 112.961 232.577 113.94 232.577 115.088C232.577 116.56 231.384 117.754 229.913 117.754C228.442 117.754 227.25 116.56 227.25 115.088C227.25 113.94 227.975 112.961 228.991 112.585V69.3247L216.408 81.9208V86.2683C221.508 86.8374 225.474 91.1676 225.474 96.4251C225.474 102.069 220.903 106.645 215.264 106.645C209.625 106.645 205.054 102.069 205.054 96.4251C205.054 91.0161 209.251 86.5885 214.564 86.2285V81.5392V81.1576L214.834 80.8877L228.991 66.7161V49.7677V49.3861L229.261 49.1161L261.398 16.9482V0.666768H263.241ZM214.564 88.0775C210.272 88.4334 206.897 92.0333 206.897 96.4251C206.897 101.053 210.645 104.802 215.264 104.802C219.883 104.802 223.63 101.053 223.63 96.4251C223.63 92.1859 220.486 88.6845 216.408 88.1262V96.2029H214.564V88.0775ZM261.398 159.301V153.863C257.212 154.323 253.953 157.874 253.953 162.19C253.953 166.818 257.7 170.566 262.319 170.566C266.939 170.566 270.686 166.818 270.686 162.19C270.686 157.874 267.427 154.323 263.241 153.863V159.301H261.398ZM290.731 80.8725C290.731 79.7244 291.456 78.7458 292.472 78.3703V0.666768H294.316V78.3703C295.333 78.7458 296.058 79.7244 296.058 80.8725C296.058 82.3449 294.865 83.5386 293.394 83.5386C291.923 83.5386 290.731 82.3449 290.731 80.8725ZM313.405 80.6506V0.666768H311.561V80.4025L292.597 113.07L292.472 113.285V113.533V152.011C287.265 152.477 283.184 156.856 283.184 162.19C283.184 167.834 287.755 172.41 293.394 172.41C299.033 172.41 303.604 167.834 303.604 162.19C303.604 156.856 299.523 152.477 294.316 152.011V113.781L313.28 81.1134L313.405 80.8988V80.6506ZM292.472 153.863V159.688C291.456 160.063 290.731 161.042 290.731 162.19C290.731 163.662 291.923 164.856 293.394 164.856C294.865 164.856 296.058 163.662 296.058 162.19C296.058 161.042 295.333 160.063 294.316 159.688V153.863C298.502 154.323 301.761 157.874 301.761 162.19C301.761 166.818 298.013 170.566 293.394 170.566C288.775 170.566 285.028 166.818 285.028 162.19C285.028 157.874 288.287 154.323 292.472 153.863ZM148.641 125.297V161.745V162.667H149.563H197.127L229.263 194.614L229.533 194.882H229.913H328.242V193.039H230.293L198.157 161.091L197.887 160.823H197.507H150.485V125.217C155.478 124.549 159.33 120.269 159.33 115.088C159.33 109.443 154.759 104.868 149.12 104.868C143.481 104.868 138.909 109.443 138.909 115.088C138.909 120.572 143.224 125.047 148.641 125.297ZM150.485 123.353V114.865H148.641V123.451C144.245 123.203 140.753 119.555 140.753 115.088C140.753 110.46 144.501 106.711 149.12 106.711C153.739 106.711 157.486 110.46 157.486 115.088C157.486 119.25 154.455 122.701 150.485 123.353ZM50.4091 176.93V202.339V203.261H51.331H117.402L148.912 234.73L149.182 235H149.563H229.913H328.242V233.156H229.913H149.945L118.435 201.687L118.165 201.417H117.783H52.2528V176L52.3747 175.579L52.2528 175.544V160.684C57.2111 160.039 61.0693 155.826 61.1333 150.677C61.2034 145.033 56.6893 140.401 51.0508 140.33C45.4123 140.26 40.7846 144.779 40.7145 150.423C40.646 155.937 44.9529 160.485 50.4091 160.757V175.01L24.001 167.367V135.237C29.1492 134.771 33.2135 130.472 33.2792 125.185C33.3493 119.541 28.8352 114.909 23.1967 114.839C17.5582 114.769 12.9304 119.287 12.8603 124.931C12.7935 130.311 16.891 134.771 22.1574 135.238V166.833L3.30933 161.378V97.6603C4.46831 97.3714 5.32707 96.3226 5.32707 95.0731C5.32707 93.6006 4.13456 92.4069 2.66353 92.4069C1.1925 92.4069 0 93.6006 0 95.0731C0 96.1143 0.596265 97.0161 1.46564 97.455V162.071V162.764L2.13119 162.956L50.4091 176.93ZM31.4356 125.163C31.3825 129.439 28.1383 132.925 24.001 133.384V125.466H22.1574V133.385C17.9229 132.925 14.6498 129.308 14.7039 124.954C14.7613 120.327 18.5551 116.625 23.1738 116.683C27.7924 116.74 31.4931 120.535 31.4356 125.163ZM50.4091 158.911C45.9838 158.641 42.5022 154.935 42.558 150.446C42.6155 145.818 46.4093 142.116 51.0279 142.174C55.6466 142.231 59.3472 146.026 59.2898 150.654C59.2383 154.792 56.1985 158.19 52.2528 158.821V152.493C53.2052 152.087 53.8729 151.141 53.8729 150.039C53.8729 148.567 52.6804 147.373 51.2094 147.373C49.7383 147.373 48.5458 148.567 48.5458 150.039C48.5458 151.232 49.3291 152.243 50.4091 152.583V158.911ZM150.707 0.444807V15.401L166.206 31.3516L166.467 31.6199V31.994V127.25C167.483 127.625 168.208 128.604 168.208 129.752C168.208 131.224 167.016 132.418 165.545 132.418C164.074 132.418 162.881 131.224 162.881 129.752C162.881 128.604 163.606 127.625 164.623 127.25V32.3681L149.124 16.4175L148.864 16.1492V15.7751V0.444807H150.707ZM134.504 32.7227V0.221961H132.66V33.1042V33.4858L132.93 33.7557L148.198 49.0382V63.2624C147.181 63.6378 146.456 64.6164 146.456 65.7645C146.456 67.237 147.649 68.4306 149.12 68.4306C150.591 68.4306 151.783 67.237 151.783 65.7645C151.783 64.6164 151.058 63.6378 150.041 63.2624V48.6566V48.2751L149.772 48.0051L134.504 32.7227Z" fill="url(#paint0_linear_2_599)"/>
<defs>
<linearGradient id="paint0_linear_2_599" x1="540.5" y1="-38.5" x2="-75.8071" y2="227.447" gradientUnits="userSpaceOnUse">
<stop offset="0.443464" stop-color="#8A92A6" stop-opacity="0.48"/>
<stop offset="0.598744" stop-color="#4C7EF2"/>
<stop offset="0.889905" stop-color="#ADADAD" stop-opacity="0.03"/>
</linearGradient>
</defs>
</svg>
